PathFileType	4	(X/Y/Z)	C:/Users/beibeiliu/ov580/test_trc/capture2\sequence.7_training_dense_left.trc
DataRate	CameraRate	NumFrames	NumMarkers	Units	OrigDataRate	OrigDataStartFrame	OrigNumFrames
120	120	12	19	mm	120	1	400
Frame#	Time	ThumbCMC			ThumbMCP			ThumbIP			ThumbTip			IndexMCP			IndexPIP			IndexTip			MiddleMCP			MiddlePIP			MiddleTip			RingMCP			RingPIP			RingTip			PinkyMCP			PinkyPIP			PinkyTip			BackHand1			BackHand2			BackHand3	
		X0	Y0	Z0	X1	Y1	Z1	X2	Y2	Z2	X3	Y3	Z3	X4	Y4	Z4	X5	Y5	Z5	X6	Y6	Z6	X7	Y7	Z7	X8	Y8	Z8	X9	Y9	Z9	X10	Y10	Z10	X11	Y11	Z11	X12	Y12	Z12	X13	Y13	Z13	X14	Y14	Z14	X15	Y15	Z15	X16	Y16	Z16	X17	Y17	Z17	X18	Y18	Z18	
0	0	-153.975	82.6305	-35.2986	-138.253	92.1471	-54.6968	-131.987	107.253	-77.4595	-125.16	115.523	-100.917	-138.396	61.0575	-108.953	-107.838	57.459	-113.222	-103.25	59.3607	-76.0685	-134.082	42.3602	-110.456	-103.126	37.4188	-102.77	-112.974	42.4892	-67.1586	-131.222	24.5193	-104.978	-105.032	23.5906	-93.6595	-115.007	32.7987	-61.6454	-134.354	4.97625	-93.147	-110.635	9.83042	-81.0526	-122.215	28.027	-55.8106	-177.589	27.8839	-69.4853	-187.022	30.0064	-34.2443	-178.398	59.5702	-53.2703	
1	0.00833333	-154.955	80.2416	-36.9654	-141.769	93.172	-55.934	-135.992	102.458	-78.2096	-129.727	115.666	-100.447	-136.836	60.1381	-108.888	-104.849	56.5967	-106.371	-109.745	59.4967	-71.7109	-130.874	42.4386	-110.165	-103.378	39.4473	-101.545	-116.052	44.0395	-64.6144	-131.075	20.059	-102.344	-104.569	26.4767	-89.0966	-121.328	36.6845	-56.571	-135.745	6.90491	-89.6783	-108.424	14.5321	-73.5174	-122.471	27.8011	-50.2244	-177.138	23.926	-64.9941	-186.424	29.1793	-36.3625	-177.51	58.5744	-54.1711	
2	0.0166667	-156.162	79.8806	-34.3113	-144.211	91.621	-52.7922	-139.357	106.773	-80.6108	-135.059	114.53	-96.0465	-132.805	65.2335	-109.501	-106.485	58.7604	-104.615	-109.703	64.1382	-71.6797	-133.461	40.9746	-107.383	-103.175	41.4322	-97.3694	-116.056	48.1706	-63.7019	-131.674	25.9071	-100.152	-104.006	30.24	-81.7962	-123.04	36.9149	-55.1741	-132.02	6.61856	-89.5441	-108.094	15.563	-71.5098	-125.138	29.3013	-50.3459	-176.827	22.0798	-64.9064	-183.888	28.1353	-35.2389	-178.573	55.8651	-50.4503	
3	0.025	-157.837	82.5079	-38.5794	-146.55	91.0964	-55.5399	-143.152	105.308	-78.436	-139.587	116.128	-94.2263	-133.517	63.1029	-107.77	-104.101	64.0144	-100.039	-113.313	59.5949	-70.6703	-133.814	43.64	-105.294	-102.364	42.7244	-92.7472	-118.894	46.5963	-61.145	-128.07	26.8775	-99.4642	-103.652	30.4817	-79.9866	-119.942	38.9632	-55.4375	-133.114	11.0084	-87.0428	-107.461	20.3023	-72.4662	-124.4	31.1023	-46.7464	-174.177	22.7528	-66.4721	-183.66	23.3434	-35.3552	-178.564	56.306	-52.8176	
4	0.0333333	-158.296	77.8072	-34.1682	-148.408	91.6651	-57.1569	-146.102	107.383	-76.7744	-143.355	118.328	-95.7865	-136.165	65.6711	-106.076	-105.67	62.4521	-102.644	-112.689	64.0921	-68.4988	-128.466	45.2396	-107.48	-102.351	45.8788	-89.2623	-117.334	48.6885	-60.2525	-127.394	21.8732	-96.8542	-103.364	32.407	-77.6781	-125.503	37.34	-53.3285	-128.24	6.42435	-86.392	-107.929	20.0413	-72.6406	-124.635	30.4505	-45.4613	-175.491	21.048	-65.7181	-183.493	28.0307	-36.5753	-177.82	54.4971	-52.2117	
5	0.0416667	-159.519	77.2007	-38.0797	-150.708	89.8492	-56.2545	-149.258	103.945	-80.674	-146.915	117.724	-97.21	-137.53	65.3383	-105.023	-106.022	59.1707	-98.287	-114.219	63.4205	-68.6006	-129.027	40.4292	-105.075	-102.391	44.3827	-91.0658	-119.654	45.3626	-59.2651	-127.069	20.6233	-96.1418	-103.304	29.1332	-75.8171	-122.941	35.0492	-52.3738	-129.262	7.72268	-86.5008	-107.417	18.206	-72.8766	-124.34	27.9281	-45.871	-176.035	23.187	-61.9378	-183.254	24.5532	-33.6752	-178.585	56.5889	-50.7733	
6	0.05	-161.581	79.1025	-37.9721	-152.763	92.0604	-57.0855	-149.356	102.577	-76.456	-148.797	114.235	-96.6941	-134.305	60.1856	-107.17	-107.881	62.5541	-101.988	-116.036	60.8866	-68.9061	-128.938	38.9915	-105.023	-103.379	44.1099	-93.1205	-120.996	47.5337	-58.0061	-130.019	24.4698	-95.7581	-103.797	29.0431	-78.541	-126.017	39.2322	-51.8801	-127.936	5.21068	-85.543	-106.901	19.2402	-67.3501	-124.899	28.9183	-44.6279	-174.301	23.1537	-60.7893	-183.951	22.1647	-31.6865	-181.248	52.3207	-49.6265	
7	0.0583333	-163.898	78.8611	-33.674	-153.923	91.204	-54.2566	-153.601	105.827	-80.2959	-151.713	117.516	-96.1285	-136.805	61.1351	-107.473	-107.544	63.2423	-98.0399	-117.279	59.7749	-68.5614	-130.101	40.603	-105.132	-104.367	43.2397	-92.2525	-123.825	50.9299	-58.6734	-129.208	24.6195	-96.2288	-104.092	27.3053	-76.585	-123.588	35.8575	-51.6835	-126.269	6.26157	-86.9438	-107.388	18.1475	-70.274	-128.136	29.7626	-44.5399	-175.201	16.8602	-60.6801	-183.998	21.2824	-33.6162	-182.923	54.2471	-51.2208	
8	0.0666667	-163.555	78.1634	-37.065	-154.367	90.0143	-57.7654	-153.061	101.652	-79.3929	-152.624	115.601	-100.808	-139.236	61.403	-106.466	-107.594	62.0285	-97.3243	-121.479	65.7462	-66.8204	-133.927	41.0344	-104.565	-104.066	41.4808	-88.3939	-122.929	48.0526	-59.069	-127.618	22.966	-96.6591	-104.407	28.1295	-76.933	-127.057	39.2018	-52.3901	-130.564	4.53418	-85.5508	-107.826	17.8617	-70.817	-126.902	28.836	-43.8795	-174.809	19.2853	-62.6919	-184.571	20.7935	-30.8894	-181.533	52.286	-50.089	
9	0.075	-163.987	76.1012	-35.7646	-155.507	93.6279	-57.4518	-154.909	106.298	-77.4642	-151.162	113.275	-97.7378	-137.76	62.0776	-106.843	-109.136	59.2188	-100.835	-120.12	61.2652	-67.1145	-131.926	42.1177	-105.708	-104.397	45.2617	-90.6932	-122.533	48.8141	-59.7833	-127.546	25.8763	-97.8115	-104.111	26.7957	-77.9088	-126.61	37.3542	-52.7433	-133.187	8.24099	-85.3366	-108.389	18.4428	-68.0951	-127.267	29.645	-46.0887	-175.963	16.3829	-62.5227	-185.065	20.7712	-35.5674	-182.666	53.1885	-50.1303	
10	0.0833333	-165.204	78.3176	-38.4908	-155.796	91.5994	-57.194	-154.257	104.914	-79.9468	-152.95	116.839	-99.8341	-136.604	59.6763	-106.696	-109.17	62.1178	-99.289	-123.324	61.4527	-66.5662	-130.544	40.9231	-106.144	-105.643	44.3132	-91.3017	-123.812	45.6332	-59.3313	-128.561	19.5575	-95.7458	-105.124	27.6913	-77.8059	-128.754	38.9255	-52.369	-133.214	8.39576	-85.4072	-108.612	19.1126	-68.979	-127.9	29.832	-46.634	-176.656	17.0383	-62.5964	-184.338	21.9154	-36.6325	-183.647	51.4808	-51.7854	
11	0.0916667	-164.056	75.5598	-35.5982	-156.283	94.2253	-55.8596	-155.082	106.435	-78.8018	-152.166	113.358	-98.6228	-136.692	61.2752	-107.12	-109.052	62.3509	-96.849	-120.762	61.142	-67.7576	-134.048	40.6934	-105.148	-105.269	42.3721	-89.5583	-127.194	48.3155	-58.2938	-131.423	20.648	-95.6738	-106.65	30.3018	-80.1694	-125.622	36.9127	-52.1637	-129.678	11.1189	-87.3017	-110.134	19.1336	-71.6011	-130.162	29.1005	-44.5237	-178.122	17.253	-64.8804	-186.551	19.9579	-34.7917	-181.788	54.5024	-53.2163	
